<svg width="24.000000" height="24.000000" viewBox="0 0 24 24" fill="none"
  xmlns="http://www.w3.org/2000/svg" xmlns:xlink="http://www.w3.org/1999/xlink">
  <defs>
    <clipPath>
      <rect rx="0.000000" width="23.000000" height="23.000000"
        transform="translate(0.500000 0.500000)" fill="white" fill-opacity="0" />
    </clipPath>
  </defs>
  <g>
    <path id="Vector"
      d="M6.29 6.29C6.48 6.1 6.73 6 7 6C7.26 6 7.51 6.1 7.7 6.29L12 10.58L16.29 6.29C16.38 6.19 16.49 6.12 16.61 6.06C16.73 6.01 16.87 5.98 17 5.98C17.13 5.98 17.26 6.01 17.39 6.06C17.51 6.11 17.62 6.18 17.71 6.28C17.81 6.37 17.88 6.48 17.93 6.6C17.98 6.73 18.01 6.86 18.01 6.99C18.01 7.12 17.98 7.26 17.93 7.38C17.87 7.5 17.8 7.61 17.7 7.7L13.41 12L17.7 16.29C17.88 16.48 17.99 16.73 17.98 16.99C17.98 17.25 17.88 17.5 17.69 17.69C17.5 17.88 17.25 17.98 16.99 17.98C16.73 17.99 16.48 17.88 16.29 17.7L12 13.41L7.7 17.7C7.51 17.88 7.26 17.99 7 17.98C6.74 17.98 6.49 17.88 6.3 17.69C6.11 17.5 6.01 17.25 6.01 16.99C6.01 16.73 6.11 16.48 6.29 16.29L10.58 12L6.29 7.7C6.1 7.51 6 7.26 6 7C6 6.73 6.1 6.48 6.29 6.29Z"
      fill="#B0BABF" fill-opacity="1.000000" fill-rule="evenodd" />
  </g>
</svg>
