<svg width="16.000000" height="16.000000" viewBox="0 0 16 16" fill="none"
  xmlns="http://www.w3.org/2000/svg" xmlns:xlink="http://www.w3.org/1999/xlink">
  <defs>
    <clipPath id="clip125_543">
      <rect id="Logout" rx="0.000000" width="15.000000" height="15.000000"
        transform="translate(0.500000 0.500000)" fill="white" fill-opacity="0" />
    </clipPath>
  </defs>
  <g clip-path="url(#clip125_543)">
    <path id="Vector"
      d="M3.33 3.33C3.15 3.33 2.98 3.4 2.86 3.52C2.73 3.65 2.66 3.82 2.66 3.99L2.66 12C2.66 12.17 2.73 12.34 2.86 12.47C2.98 12.59 3.15 12.66 3.33 12.66C3.51 12.66 3.67 12.59 3.8 12.47C3.92 12.34 4 12.17 4 12L4 3.99C4 3.82 3.92 3.65 3.8 3.52C3.67 3.4 3.51 3.33 3.33 3.33ZM10.19 9.52C10.07 9.65 10 9.82 10 9.99C10 10.17 10.07 10.33 10.2 10.46C10.32 10.58 10.49 10.65 10.66 10.65C10.84 10.66 11.01 10.59 11.13 10.47L13.13 8.47C13.26 8.34 13.33 8.17 13.33 7.99C13.33 7.82 13.26 7.65 13.13 7.52L11.13 5.52C11.07 5.46 11 5.41 10.92 5.37C10.84 5.34 10.75 5.32 10.66 5.32C10.57 5.32 10.48 5.34 10.4 5.37C10.32 5.4 10.24 5.45 10.18 5.52C10.12 5.58 10.07 5.65 10.04 5.73C10 5.82 9.99 5.9 9.99 5.99C9.99 6.08 10.01 6.17 10.04 6.25C10.08 6.33 10.13 6.4 10.19 6.47L11.05 7.33L6 7.33C5.82 7.33 5.65 7.4 5.52 7.52C5.4 7.65 5.33 7.82 5.33 7.99C5.33 8.17 5.4 8.34 5.52 8.47C5.65 8.59 5.82 8.66 6 8.66L11.05 8.66L10.19 9.52Z"
      fill="#252C32" fill-opacity="1.000000" fill-rule="evenodd" />
    <path id="Vector"
      d="M10.08 6.33C10.11 6.38 10.15 6.43 10.19 6.47L11.05 7.33L6 7.33C5.82 7.33 5.65 7.4 5.52 7.52C5.4 7.65 5.33 7.82 5.33 7.99C5.33 8.17 5.4 8.34 5.52 8.47C5.65 8.59 5.82 8.66 6 8.66L11.05 8.66L10.19 9.52C10.15 9.57 10.12 9.61 10.09 9.66C10.03 9.76 10 9.88 10 9.99C10 10.17 10.07 10.33 10.2 10.46C10.32 10.58 10.49 10.65 10.66 10.65C10.84 10.66 11.01 10.59 11.13 10.47L13.13 8.47C13.17 8.42 13.21 8.38 13.24 8.33C13.27 8.28 13.29 8.22 13.31 8.17C13.32 8.11 13.33 8.05 13.33 7.99C13.33 7.94 13.32 7.88 13.31 7.82C13.29 7.77 13.27 7.71 13.24 7.66C13.21 7.61 13.17 7.57 13.13 7.52L11.13 5.52C11.07 5.46 11 5.41 10.92 5.37C10.84 5.34 10.75 5.32 10.66 5.32C10.57 5.32 10.48 5.34 10.4 5.37C10.32 5.4 10.24 5.45 10.18 5.52C10.12 5.58 10.07 5.65 10.04 5.73C10 5.82 9.99 5.9 9.99 5.99C9.99 6.08 10.01 6.17 10.04 6.25C10.05 6.28 10.07 6.3 10.08 6.33ZM10.89 5.76Q10.89 5.75 10.89 5.75L10.89 5.76ZM10.43 6.24L10.43 6.23Q10.43 6.23 10.43 6.24ZM3.33 3.33C3.15 3.33 2.98 3.4 2.86 3.52C2.73 3.65 2.66 3.82 2.66 3.99L2.66 12C2.66 12.17 2.73 12.34 2.86 12.47C2.98 12.59 3.15 12.66 3.33 12.66C3.51 12.66 3.67 12.59 3.8 12.47C3.92 12.34 4 12.17 4 12L4 3.99C4 3.82 3.92 3.65 3.8 3.52C3.67 3.4 3.51 3.33 3.33 3.33Z"
      fill="#0E73F6" fill-opacity="1.000000" fill-rule="evenodd" />
  </g>
</svg>