<svg width="24.000000" height="24.000000" viewBox="0 0 24 24" fill="none"
  xmlns="http://www.w3.org/2000/svg" xmlns:xlink="http://www.w3.org/1999/xlink">
  <defs>
    <clipPath id="clip16_4852">
      <rect id="Plus" rx="0.000000" width="23.000000" height="23.000000"
        transform="translate(0.500000 0.500000)" fill="white" fill-opacity="0" />
    </clipPath>
  </defs>
  <g clip-path="url(#clip16_4852)">
    <path id="Vector"
      d="M12 7C12.26 7 12.51 7.1 12.7 7.29C12.89 7.48 13 7.73 13 8L13 11L16 11C16.26 11 16.51 11.1 16.7 11.29C16.89 11.48 17 11.73 17 12C17 12.26 16.89 12.51 16.7 12.7C16.51 12.89 16.26 13 16 13L13 13L13 16C13 16.26 12.89 16.51 12.7 16.7C12.51 16.89 12.26 17 12 17C11.73 17 11.48 16.89 11.29 16.7C11.1 16.51 11 16.26 11 16L11 13L8 13C7.73 13 7.48 12.89 7.29 12.7C7.1 12.51 7 12.26 7 12C7 11.73 7.1 11.48 7.29 11.29C7.48 11.1 7.73 11 8 11L11 11L11 8C11 7.73 11.1 7.48 11.29 7.29C11.48 7.1 11.73 7 12 7Z"
      fill="#FFFFFF" fill-opacity="1.000000" fill-rule="evenodd" />
  </g>
</svg>