<svg width="24.000000" height="24.000000" viewBox="0 0 24 24" fill="none"
  xmlns="http://www.w3.org/2000/svg" xmlns:xlink="http://www.w3.org/1999/xlink">
  <defs>
    <clipPath id="clip13_4085">
      <rect id="Search" rx="0.000000" width="23.000000" height="23.000000"
        transform="translate(0.500000 0.500000)" fill="white" fill-opacity="0" />
    </clipPath>
  </defs>
  <g clip-path="url(#clip13_4085)">
    <path id="Vector"
      d="M10 6C8.93 6 7.92 6.42 7.17 7.17C6.42 7.92 6 8.93 6 10C6 11.06 6.42 12.07 7.17 12.82C7.92 13.57 8.93 14 10 14C11.06 14 12.07 13.57 12.82 12.82C13.57 12.07 14 11.06 14 10C14 8.93 13.57 7.92 12.82 7.17C12.07 6.42 11.06 6 10 6ZM4 10C3.99 9.05 4.22 8.12 4.65 7.28C5.07 6.44 5.69 5.71 6.46 5.15C7.22 4.59 8.1 4.22 9.03 4.07C9.97 3.92 10.92 3.99 11.82 4.28C12.72 4.57 13.54 5.06 14.21 5.73C14.88 6.39 15.39 7.2 15.69 8.1C15.99 8.99 16.07 9.95 15.93 10.88C15.79 11.81 15.43 12.7 14.89 13.47L19.7 18.29C19.88 18.48 19.99 18.73 19.98 18.99C19.98 19.25 19.88 19.51 19.69 19.69C19.5 19.88 19.25 19.98 18.99 19.98C18.73 19.99 18.48 19.88 18.29 19.7L13.47 14.89C12.57 15.53 11.52 15.9 10.42 15.98C9.32 16.06 8.22 15.83 7.24 15.33C6.26 14.82 5.44 14.06 4.87 13.12C4.3 12.18 3.99 11.1 4 10Z"
      fill="#B0BABF" fill-opacity="1.000000" fill-rule="evenodd" />
  </g>
</svg>
